<svg width="144" height="24" viewBox="0 0 144 24" fill="none" xmlns="http://www.w3.org/2000/svg">
<path d="M143.942 11.814C143.981 11.4557 144 11.0859 144 10.7093C144 9.42546 143.725 8.32995 143.172 7.42278C142.641 6.5156 141.88 5.8266 140.891 5.35349C139.92 4.86201 138.799 4.61627 137.525 4.61627C136.117 4.61627 134.902 4.92861 133.875 5.55101C132.849 6.15502 132.049 7.00479 131.48 8.10029C131.242 8.5734 131.06 9.08096 130.923 9.62297V0H127.844V10.204C127.632 8.76632 127.144 7.56287 126.37 6.60287C125.306 5.28 123.774 4.61857 121.779 4.61857C120.542 4.61857 119.525 4.85512 118.727 5.32593C117.948 5.77837 117.387 6.41225 117.045 7.22526H116.901V4.90105H114.107V10.0157C113.966 9.3267 113.744 8.68823 113.439 8.10488C112.886 7.00938 112.089 6.15962 111.044 5.5556C110.017 4.93321 108.781 4.62086 107.336 4.62086C105.891 4.62086 104.636 4.93321 103.573 5.5556C102.507 6.15962 101.691 7.00938 101.12 8.10488C100.87 8.58488 100.679 9.10392 100.538 9.65282C100.424 8.81455 100.175 8.07043 99.7817 7.42507C99.2501 6.5179 98.4896 5.8289 97.5002 5.35579C96.5316 4.86431 95.4082 4.61857 94.1345 4.61857C92.7268 4.61857 91.5109 4.93091 90.4845 5.5533C89.4582 6.15732 88.6607 7.00708 88.0897 8.10258C87.7962 8.68823 87.5812 9.3244 87.4448 10.0111C87.2183 8.65837 86.7421 7.51694 86.0047 6.60057C84.9414 5.2777 83.4088 4.61627 81.4139 4.61627C80.1772 4.61627 79.1601 4.85282 78.3626 5.32364C77.5836 5.77608 77.0219 6.40995 76.6798 7.22297H76.5365V4.89876H73.7418V23.8829H76.793V16.8H76.8786C77.1837 17.4431 77.7246 18.0172 78.5036 18.5294C79.3034 19.0209 80.339 19.2666 81.6127 19.2666C83.5521 19.2666 85.0338 18.6052 86.0602 17.2823C86.7583 16.3682 87.2137 15.2452 87.4379 13.9223C87.5604 14.586 87.7499 15.2084 88.0042 15.7826C88.4989 16.8781 89.2594 17.737 90.2858 18.3617C91.3121 18.9657 92.595 19.2689 94.1345 19.2689C95.4267 19.2689 96.5386 19.0714 97.4701 18.6741C98.4202 18.2767 99.1622 17.7301 99.6939 17.0297C100.226 16.3108 100.494 15.4702 100.494 14.5079V14.253H97.4424V14.4804C97.4424 15.1028 97.1951 15.6034 96.7004 15.9824C96.2057 16.359 95.3597 16.5497 94.1623 16.5497C93.1359 16.5497 92.3269 16.3889 91.7374 16.0674C91.148 15.7458 90.7296 15.2635 90.4822 14.6228C90.2927 14.0716 90.1817 13.417 90.1517 12.6683H100.293C100.373 13.8235 100.649 14.8639 101.12 15.7849C101.691 16.8804 102.507 17.7393 103.573 18.364C104.638 18.968 105.891 19.2712 107.336 19.2712C108.781 19.2712 110.017 18.968 111.044 18.364C112.089 17.7416 112.888 16.8804 113.439 15.7849C113.744 15.19 113.963 14.5447 114.107 13.8511V23.8875H117.158V16.8046H117.243C117.549 17.4477 118.089 18.0218 118.868 18.534C119.668 19.0255 120.704 19.2712 121.978 19.2712C123.917 19.2712 125.399 18.6098 126.425 17.2869C127.167 16.32 127.636 15.1166 127.842 13.6857V18.9864H130.921V14.3701C131.039 14.8685 131.196 15.3393 131.393 15.7849C131.887 16.8804 132.648 17.7393 133.674 18.364C134.7 18.968 135.983 19.2712 137.523 19.2712C138.815 19.2712 139.927 19.0737 140.859 18.6764C141.809 18.279 142.551 17.7324 143.082 17.032C143.614 16.3131 143.882 15.4725 143.882 14.5102V14.2553H140.831V14.4827C140.831 15.1051 140.583 15.6057 140.089 15.9847C139.594 16.3613 138.748 16.552 137.551 16.552C136.524 16.552 135.715 16.3912 135.126 16.0697C134.536 15.7481 134.118 15.2658 133.871 14.6251C133.681 14.0739 133.57 13.4193 133.54 12.6706H143.852C143.891 12.4433 143.919 12.1608 143.938 11.8209L143.942 11.814ZM84.2941 14.1657C84.1601 14.7698 83.9335 15.2521 83.6099 15.6103C83.3048 15.9686 82.9072 16.2327 82.4125 16.4027C81.9178 16.5726 81.3376 16.6576 80.6719 16.6576C79.8536 16.6576 79.1509 16.5359 78.5614 16.2901C77.972 16.026 77.5258 15.6379 77.2207 15.128C76.9364 14.6182 76.793 13.9751 76.793 13.2011V10.6794C76.793 9.88708 76.9364 9.24402 77.2207 8.75254C77.5258 8.24268 77.972 7.86373 78.5614 7.62029C79.1509 7.35617 79.8536 7.22297 80.6719 7.22297C81.3561 7.22297 81.9363 7.30794 82.4125 7.4779C82.9072 7.62947 83.3048 7.89359 83.6099 8.27024C83.9335 8.64689 84.1624 9.13837 84.2941 9.74469C84.4467 10.3303 84.523 11.0584 84.523 11.9265C84.523 12.7946 84.4467 13.5411 84.2941 14.1657ZM97.662 10.6243H90.1794C90.2673 9.6689 90.5285 8.89263 90.97 8.3001C91.5224 7.5445 92.5488 7.16785 94.049 7.16785C94.8858 7.16785 95.5793 7.30105 96.1317 7.56517C96.7027 7.82928 97.1119 8.23579 97.3592 8.78239C97.595 9.26928 97.6967 9.88249 97.662 10.6243ZM110.447 15.4427C109.858 16.1799 108.822 16.5474 107.338 16.5474C105.854 16.5474 104.791 16.1799 104.201 15.4427C103.612 14.6871 103.318 13.5158 103.318 11.9288C103.318 10.3418 103.612 9.17971 104.201 8.44479C104.791 7.70756 105.836 7.3401 107.338 7.3401C108.841 7.3401 109.858 7.70756 110.447 8.44479C111.037 9.18201 111.333 10.3441 111.333 11.9288C111.333 13.5135 111.037 14.6871 110.447 15.4427ZM124.659 14.1657C124.525 14.7698 124.298 15.2521 123.975 15.6103C123.67 15.9686 123.272 16.2327 122.777 16.4027C122.283 16.5726 121.702 16.6576 121.037 16.6576C120.218 16.6576 119.516 16.5359 118.926 16.2901C118.337 16.026 117.891 15.6379 117.586 15.128C117.301 14.6182 117.158 13.9751 117.158 13.2011V10.6794C117.158 9.88708 117.301 9.24402 117.586 8.75254C117.891 8.24268 118.337 7.86373 118.926 7.62029C119.516 7.35617 120.218 7.22297 121.037 7.22297C121.721 7.22297 122.301 7.30794 122.777 7.4779C123.272 7.62947 123.67 7.89359 123.975 8.27024C124.298 8.64689 124.527 9.13837 124.659 9.74469C124.812 10.3303 124.888 11.0584 124.888 11.9265C124.888 12.7946 124.812 13.5411 124.659 14.1657ZM141.053 10.6243H133.57C133.658 9.6689 133.919 8.89263 134.361 8.3001C134.913 7.5445 135.939 7.16785 137.44 7.16785C138.277 7.16785 138.97 7.30105 139.522 7.56517C140.093 7.82928 140.503 8.23579 140.748 8.78239C140.983 9.26928 141.085 9.88249 141.05 10.6243H141.053Z" fill="#171717"/>
<path fill-rule="evenodd" clip-rule="evenodd" d="M36.1 12.1539C36.137 11.7956 36.1578 11.4258 36.1578 11.0492C36.1578 9.76537 35.8827 8.66987 35.3302 7.76499C34.7986 6.85781 34.038 6.16882 33.051 5.698C32.0824 5.20652 30.9613 4.96078 29.6876 4.96078C28.2822 4.96078 27.064 5.27312 26.04 5.89551C25.0136 6.49953 24.2161 7.34929 23.6452 8.4448C23.2476 9.23255 22.9956 10.1122 22.8847 11.0859V10.4544C22.8847 9.41628 22.7044 8.48154 22.3438 7.65016C21.9831 6.81877 21.4122 6.16882 20.6332 5.69571C19.8727 5.20422 18.8648 4.95848 17.6119 4.95848C16.7752 4.95848 16.0354 5.09169 15.3882 5.3558C14.7618 5.60154 14.2393 5.93226 13.8209 6.34795C13.4026 6.76365 13.109 7.16097 12.8801 7.59504H12.7669V0.344509H9.68784V5.24327H5.4484V1.75925H3.08134L2.42716 5.24327H0V7.79255H2.36706V14.9857C2.36706 16.552 2.77621 17.6658 3.5922 18.3273C4.42899 18.9887 5.62639 19.3194 7.1844 19.3194C7.67908 19.3194 8.15295 19.3011 8.61064 19.262C9.04753 19.2069 9.40583 19.1449 9.68553 19.0737V19.3194H12.7646V11.2192C12.7646 9.87791 13.0581 8.94317 13.6476 8.41494C14.2555 7.86834 15.1778 7.59274 16.4122 7.59274C17.6466 7.59274 18.5874 7.87523 19.0636 8.4425C19.5583 8.9891 19.8056 9.88709 19.8056 11.1342V19.3194H22.8847V13.5158C22.9887 14.4689 23.2129 15.337 23.5596 16.1202C24.0543 17.2157 24.8148 18.0747 25.8412 18.697C26.8675 19.3011 28.1504 19.6042 29.69 19.6042C30.9821 19.6042 32.094 19.4067 33.0256 19.0094C33.9756 18.6121 34.7177 18.0655 35.2493 17.3673C35.781 16.6507 36.0468 15.8102 36.0468 14.8456V14.5906H32.9955V14.818C32.9955 15.4404 32.7482 15.9411 32.2535 16.32C31.7588 16.6967 30.9128 16.8873 29.7177 16.8873C28.6914 16.8873 27.8846 16.7265 27.2952 16.405C26.7057 16.0835 26.2873 15.6035 26.04 14.9604C25.8481 14.4069 25.7395 13.757 25.7071 13.0059H36.0168C36.0537 12.7786 36.0838 12.4961 36.1023 12.1562L36.1 12.1539ZM9.68322 16.5428H8.00963C7.04108 16.5428 6.3661 16.4486 5.98469 16.2603C5.62408 16.0536 5.44378 15.5805 5.44378 14.8433V7.79025H9.68322V16.5428ZM25.7279 10.9642C25.8157 10.0065 26.0793 9.23255 26.5231 8.64231C27.0732 7.88671 28.0996 7.51006 29.6021 7.51006C30.4389 7.51006 31.1324 7.64327 31.6825 7.90738C32.2535 8.1715 32.6603 8.578 32.9077 9.12461C33.1435 9.6115 33.2452 10.2247 33.2128 10.9665H25.7279V10.9642Z" fill="#171717"/>
<path d="M70.4731 6.46372H70.4666C69.9923 6.255 69.518 6.15172 69.0567 6.15172C68.5954 6.15172 68.2142 6.23564 67.963 6.40347C67.8223 6.49384 67.0448 7.11998 62.0334 11.432C62.5596 9.20498 62.8174 7.86447 62.8174 7.33946C62.8174 6.74129 62.6853 6.27222 62.4254 5.94516C62.159 5.59874 61.7973 5.4223 61.3534 5.4223C60.9094 5.4223 60.2943 5.70417 59.4107 6.28513C58.5705 6.84242 57.7865 7.49868 57.0848 8.23672C56.3441 9.00702 55.9825 9.61165 55.9825 10.0872C55.9825 10.7542 56.0063 11.5137 56.2943 12.0624C56.3593 12.1851 56.4871 12.2604 56.6365 12.2604C56.8098 12.269 56.9938 12.1614 57.074 12.0108C57.3468 11.5073 57.9749 10.6466 58.6528 9.97098C59.558 9.06727 59.9825 8.77249 60.1709 8.67996C60.1492 8.81552 60.0886 9.13612 59.9153 9.89352C59.8222 10.3066 59.7269 10.7069 59.6338 11.0963C59.5472 11.4772 59.4281 11.9828 59.2765 12.6133C59.1314 13.2136 59.0101 13.7257 58.9126 14.1517C56.2705 16.4562 54.2239 18.2701 52.8314 19.5417C50.9148 21.2824 50.6029 21.758 50.5444 21.9753C50.4881 22.1754 50.46 22.3282 50.46 22.4465C50.46 22.5649 50.4773 22.6638 50.5119 22.7413L50.5596 22.8252C50.7177 23.1695 51.1746 23.6364 51.6099 23.7956C51.872 23.8903 52.0604 23.8473 52.1709 23.7956C52.2228 23.7698 52.2726 23.7461 58.0117 18.354C57.7237 19.8257 57.5786 20.9145 57.5786 21.5966C57.5786 22.4099 57.7627 23.021 58.1243 23.4083C58.4903 23.7999 58.9126 24 59.3783 24C60.2878 24 61.2581 23.5783 62.2608 22.7477C62.6636 22.4207 63.0491 22.0614 63.4108 21.6827C63.7681 21.2975 64.0518 20.9704 64.2467 20.7079C64.4568 20.4368 64.6127 20.2195 64.7188 20.0388C64.8379 19.8279 64.8986 19.5568 64.8986 19.2276C64.8986 19.2082 64.8661 17.2889 64.3442 17.2394C64.1774 17.2222 64.015 17.3491 63.7486 17.702C63.5689 17.943 62.9885 18.5433 62.0247 19.4879C61.1368 20.3572 60.4741 20.9489 60.0388 21.2588V21.2459C60.0388 20.3981 60.381 18.4852 61.0588 15.5632C64.2554 12.7725 66.577 10.7822 67.9565 9.64392C68.5499 9.15549 69.0675 8.73376 69.4963 8.39164C69.9295 8.03661 70.2088 7.80422 70.3496 7.67943C70.5142 7.53311 70.6225 7.40831 70.6788 7.30718C70.7589 7.18238 70.8001 7.04898 70.8001 6.91127C70.8001 6.80153 70.7568 6.59712 70.4709 6.46157L70.4731 6.46372Z" fill="url(#paint0_linear_5_348)"/>
<path d="M54.0116 15.4857C54.828 14.6875 55.3565 13.9516 55.5839 13.2975C55.6748 13.0264 55.8827 11.7009 55.5535 11.2125C55.4409 11.0468 55.298 11.0038 55.1832 10.9973C55.0554 10.9973 54.9558 11.0705 54.6093 11.5073C54.4014 11.7805 53.8751 12.3163 53.0478 13.0995C52.2379 13.872 51.5232 14.4443 50.9233 14.7972C51.0359 14.425 51.311 13.7708 51.913 12.624C52.6385 11.2577 53.507 9.73642 54.4989 8.10113C55.5059 6.45509 56.3505 5.08661 57.0154 4.03228C57.6976 2.94782 58.1307 2.26359 58.3364 1.94729C58.5877 1.57289 58.6981 1.3276 58.6981 1.14686C58.6981 0.705758 58.2607 0.481982 57.3965 0.481982H57.3013C56.7598 0.477678 56.0841 0.477678 55.6748 1.00269C50.802 7.23615 46.9623 11.645 44.2638 14.1044C42.9753 15.2835 42.6612 15.4018 42.5984 15.4083C42.5551 15.4083 42.501 15.4083 42.501 15.1974C42.501 14.4379 43.2828 12.7144 44.8269 10.0785C45.5936 8.77031 47.4994 5.9064 50.4967 1.56644C50.5768 1.44164 50.618 1.30393 50.618 1.15761C50.618 0.776764 50.239 0.475527 50.0137 0.359335C49.3445 0.0107606 48.697 0.036581 48.2812 0.426038C47.6206 1.02421 46.8107 1.6482 45.8751 2.27865C44.7121 3.06402 44.3072 3.18881 44.175 3.20172C43.9975 3.16084 43.5253 3.08984 43.1853 3.35449C42.9623 3.52663 42.8518 3.79774 42.854 4.15923C42.854 4.54223 42.9666 4.89511 43.1875 5.20926C43.4236 5.53416 43.7787 5.69984 44.2422 5.69984C44.4111 5.69984 44.6688 5.6439 45.1344 5.3233C44.2054 6.67026 43.2113 8.26036 42.1675 10.0699C40.6948 12.6283 39.9476 14.6509 39.9476 16.0839C39.9476 16.6025 40.0949 17.0845 40.3873 17.5191C40.697 17.9688 41.2124 18.1969 41.9227 18.1969C42.6331 18.1969 43.4994 17.7902 44.6342 16.9511C45.0955 16.6068 45.6196 16.1463 46.1978 15.5826C46.7674 15.0167 47.4236 14.326 48.1469 13.5342C48.5216 13.1275 49.0327 12.5207 49.6759 11.7224C49.3705 12.2711 49.0868 12.8133 48.8226 13.3427C48.0624 14.8704 47.6943 15.9828 47.6943 16.7445C47.6943 17.1963 47.8069 17.5729 48.0343 17.8634C48.279 18.1668 48.5844 18.3217 48.9417 18.3217C49.5936 18.3217 50.3884 18.0506 51.3716 17.4911C52.331 16.9424 53.2211 16.269 54.0181 15.4901L54.0116 15.4857Z" fill="url(#paint1_linear_5_348)"/>
<defs>
<linearGradient id="paint0_linear_5_348" x1="55.3739" y1="0.114838" x2="55.3739" y2="24" gradientUnits="userSpaceOnUse">
<stop offset="0.302885" stop-color="#06ABA4"/>
<stop offset="1" stop-color="#0F7768"/>
</linearGradient>
<linearGradient id="paint1_linear_5_348" x1="55.3739" y1="0.114838" x2="55.3739" y2="24" gradientUnits="userSpaceOnUse">
<stop offset="0.302885" stop-color="#06ABA4"/>
<stop offset="1" stop-color="#0F7768"/>
</linearGradient>
</defs>
</svg>
